<svg width="46" height="53" viewBox="0 0 46 53" fill="none" xmlns="http://www.w3.org/2000/svg">
<path d="M21.4755 49.7584V53L45.8685 7.86086V5.02447L42.9961 10.292L21.4755 49.7584Z" fill="#242424"/>
<path fill-rule="evenodd" clip-rule="evenodd" d="M21.4755 49.7584L12.7417 45.6387L9.00361 43.8754L0 39.6284L24.9289 4.59901L42.9961 10.292L21.4755 49.7584ZM31.4434 9.88685L13.9388 37.4404L18.396 39.6284L35.4144 11.3456L31.4434 9.88685Z" fill="#242424"/>
<path d="M45.8685 5.02447L28.2018 0L24.9289 4.59901L42.9961 10.292L45.8685 5.02447Z" fill="#242424"/>
<path fill-rule="evenodd" clip-rule="evenodd" d="M0.567278 42.708L0 39.6284L9.00361 43.8754L9.07138 46.8941L0.567278 42.708ZM12.853 48.7556L21.4755 53V49.7584L12.7417 45.6387L12.853 48.7556Z" fill="#242424"/>
<path d="M9.00361 43.8754L9.07138 46.8941L12.853 48.7556L12.7417 45.6387L9.00361 43.8754Z" fill="#242424"/>
<path d="M21.4755 49.7584V53L45.8685 7.86085V5.02446L42.9961 10.292L21.4755 49.7584Z" fill="black"/>
<path d="M0 39.6284L0.567278 42.7079L21.4755 53L21.4755 49.7584L0 39.6284Z" fill="#161616"/>
<path opacity="0.8" d="M45.8685 5.02446L28.2018 0L24.9289 4.59901L42.9961 10.292L45.8685 5.02446Z" fill="#EE9999"/>
<path d="M31.4434 9.88684L13.9388 37.4404L18.396 39.6284L35.4144 11.3456L31.4434 9.88684Z" fill="url(#paint0_linear)"/>
<path d="M9.00363 43.8754L9.0714 46.8941L12.8531 48.7556L12.7417 45.6387L9.00363 43.8754Z" fill="white"/>
<defs>
<linearGradient id="paint0_linear" x1="35.4144" y1="11.5076" x2="13.9388" y2="37.2783" gradientUnits="userSpaceOnUse">
<stop stop-color="#FBD896"/>
<stop offset="0.489583" stop-color="#E57F88"/>
<stop offset="0.911458" stop-color="#3FB5EE"/>
</linearGradient>
</defs>
</svg>
